<svg width="15" height="15" viewBox="0 0 15 15" fill="none" xmlns="http://www.w3.org/2000/svg">
<path d="M10.4565 2.78833H10.4565C10.8878 2.78833 11.3016 2.9597 11.6066 3.26474C11.9116 3.56978 12.083 3.9835 12.083 4.41489V4.41489C12.083 4.84628 11.9116 5.26 11.6066 5.56504C11.3016 5.87008 10.8878 6.04145 10.4565 6.04145H8.8299V4.41489C8.8299 3.9835 9.00127 3.56978 9.3063 3.26474C9.61134 2.9597 10.0251 2.78833 10.4565 2.78833V2.78833Z" stroke="#2DB88D" stroke-width="1.39419" stroke-linecap="round" stroke-linejoin="round"/>
<path d="M6.04151 6.0415H4.41495C3.98356 6.0415 3.56984 5.87013 3.2648 5.5651C2.95976 5.26006 2.78839 4.84633 2.78839 4.41494V4.41494C2.78839 3.98355 2.95976 3.56983 3.2648 3.26479C3.56983 2.95975 3.98356 2.78838 4.41495 2.78838H4.41495C4.84634 2.78838 5.26006 2.95975 5.5651 3.26479C5.87014 3.56983 6.04151 3.98355 6.04151 4.41494V6.0415Z" stroke="#2DB88D" stroke-width="1.39419" stroke-linecap="round" stroke-linejoin="round"/>
<path d="M8.8299 8.82996H10.4565C10.8878 8.82996 11.3016 9.00132 11.6066 9.30636C11.9116 9.6114 12.083 10.0251 12.083 10.4565V10.4565C12.083 10.8879 11.9116 11.3016 11.6066 11.6067C11.3016 11.9117 10.8878 12.0831 10.4565 12.0831H10.4565C10.0251 12.0831 9.61134 11.9117 9.3063 11.6067C9.00127 11.3016 8.8299 10.8879 8.8299 10.4565V8.82996Z" stroke="#2DB88D" stroke-width="1.39419" stroke-linecap="round" stroke-linejoin="round"/>
<path d="M4.41495 12.083H4.41495C3.98356 12.083 3.56983 11.9116 3.2648 11.6066C2.95976 11.3016 2.78839 10.8878 2.78839 10.4565V10.4564C2.78839 10.0251 2.95976 9.61134 3.2648 9.3063C3.56984 9.00126 3.98356 8.82989 4.41495 8.82989H6.04151V10.4564C6.04151 10.8878 5.87014 11.3016 5.5651 11.6066C5.26006 11.9116 4.84634 12.083 4.41495 12.083V12.083Z" stroke="#2DB88D" stroke-width="1.39419" stroke-linecap="round" stroke-linejoin="round"/>
<path d="M8.8299 6.0415H6.04151V8.82989H8.8299V6.0415Z" stroke="#2DB88D" stroke-width="1.39419" stroke-linecap="round" stroke-linejoin="round"/>
</svg>
